<svg width="90" height="97" viewBox="0 0 90 97" fill="none" xmlns="http://www.w3.org/2000/svg">
<path d="M88.4446 2.17217C88.7049 2.05849 88.9271 1.86095 89.0562 1.60331C89.1854 1.34582 89.2117 1.05207 89.1281 0.782338C89.0444 0.512606 88.8565 0.285294 88.6043 0.146079C88.3521 0.00669936 88.0571 -0.0304344 87.7781 0.0231416C87.7781 0.0231416 87.7781 0.0231416 87.7781 0.0231416C85.5385 0.456431 83.3011 0.967389 81.0825 1.5369C72.2085 3.84929 63.5478 6.95496 55.381 11.5351C49.9399 15.0879 43.2412 17.5914 40.5823 26.5372C37.8402 43.5105 33.2613 61.9397 19.9779 72.6074C13.9003 77.2036 8.36768 82.5044 3.81408 88.6307C2.44392 90.5077 1.15109 92.4016 0.105835 94.5931C-0.015838 94.8597 -0.0347634 95.1646 0.0600009 95.4439C0.1547 95.7231 0.354218 95.9534 0.615954 96.0848C0.87769 96.2161 1.18159 96.2385 1.46209 96.1475C1.74266 96.0565 1.97573 95.8592 2.11682 95.6022C3.15493 93.7789 4.53823 92.0081 5.95804 90.3261C10.7019 84.7824 16.3212 80.017 22.3552 75.9352C38.118 64.4245 43.2273 44.9958 46.3806 27.4425C47.1834 23.7641 53.2648 19.6378 58.3422 16.7534C65.9801 12.4652 74.097 8.69259 82.2791 4.9322C84.3267 3.99883 86.3866 3.07262 88.4446 2.17217Z" fill="#AF0000"/>
</svg>
